<svg width="133.710938" height="17.941406" viewBox="0 0 133.711 17.9414" fill="none" xmlns="http://www.w3.org/2000/svg" xmlns:xlink="http://www.w3.org/1999/xlink">
	<desc>
			Created with Pixso.
	</desc>
	<defs/>
	<path id="NETCLICKS" d="M55.43 0C59.47 0 62.52 2.32 63 6.35L59.27 6.35C58.99 4.43 57.53 3.26 55.51 3.26C52.81 3.26 51.04 5.33 51.04 8.97C51.04 12.7 52.84 14.67 55.48 14.67C57.45 14.67 58.92 13.59 59.27 11.73L63 11.74C62.6 14.95 59.9 17.93 55.43 17.93C50.76 17.93 47.3 14.66 47.3 8.97C47.3 3.25 50.81 0 55.43 0ZM93.83 0C97.87 0 100.92 2.32 101.41 6.35L97.67 6.35C97.39 4.43 95.93 3.26 93.92 3.26C91.22 3.26 89.44 5.33 89.44 8.97C89.44 12.7 91.24 14.67 93.89 14.67C95.86 14.67 97.33 13.59 97.67 11.73L101.41 11.74C101.01 14.95 98.31 17.93 93.83 17.93C89.16 17.93 85.7 14.66 85.7 8.97C85.7 3.25 89.22 0 93.83 0ZM133.47 5.26L129.93 5.26C129.8 3.89 128.71 3.08 126.95 3.08C125.14 3.08 124.14 3.91 124.14 5.03C124.12 6.29 125.39 6.85 126.91 7.2L128.47 7.57C131.51 8.26 133.7 9.8 133.71 12.7C133.7 15.9 131.19 17.94 126.93 17.94C122.7 17.94 120 15.99 119.9 12.21L123.47 12.21C123.59 13.96 124.97 14.84 126.89 14.84C128.77 14.84 129.97 13.98 129.99 12.7C129.97 11.52 128.92 10.98 127.02 10.51L125.12 10.04C122.17 9.33 120.35 7.85 120.36 5.28C120.35 2.11 123.15 0 126.97 0C130.86 0 133.42 2.15 133.47 5.26ZM10.92 0.24L14.6 0.24L14.6 17.69L11.41 17.69L3.82 6.7L3.69 6.7L3.69 17.69L0 17.69L0 0.24L3.24 0.24L10.76 11.22L10.92 11.22L10.92 0.24ZM29.43 17.69L17.64 17.69L17.64 0.24L29.4 0.24L29.4 3.28L21.33 3.28L21.33 7.44L28.79 7.44L28.79 10.48L21.33 10.48L21.33 14.65L29.43 14.65L29.43 17.69ZM37.01 3.28L31.67 3.28L31.67 0.24L46.01 0.24L46.01 3.28L40.66 3.28L40.66 17.69L37.01 17.69L37.01 3.28ZM76.83 17.69L65.65 17.69L65.65 0.24L69.35 0.24L69.35 14.65L76.83 14.65L76.83 17.69ZM79.27 0.24L82.96 0.24L82.96 17.69L79.27 17.69L79.27 0.24ZM107.75 17.69L104.06 17.69L104.06 0.24L107.75 0.24L107.75 7.93L107.98 7.93L114.26 0.24L118.68 0.24L112.2 8.05L118.76 17.69L114.35 17.69L109.57 10.51L107.75 12.73L107.75 17.69Z" fill="#000000" fill-opacity="1.000000" fill-rule="evenodd"/>
</svg>
